<?xml version="1.0" encoding="UTF-8" standalone="no"?>
<!DOCTYPE svg PUBLIC "-//W3C//DTD SVG 1.1//EN"
 "http://www.w3.org/Graphics/SVG/1.1/DTD/svg11.dtd">
<!-- Generated by graphviz version 2.43.0 (0)
 -->
<!-- Title: snakemake_dag Pages: 1 -->
<svg width="379pt" height="332pt"
 viewBox="0.00 0.00 379.00 332.00" xmlns="http://www.w3.org/2000/svg" xmlns:xlink="http://www.w3.org/1999/xlink">
<g id="graph0" class="graph" transform="scale(1 1) rotate(0) translate(4 328)">
<title>snakemake_dag</title>
<polygon fill="white" stroke="transparent" points="-4,4 -4,-328 375,-328 375,4 -4,4"/>
<!-- 0 -->
<g id="node1" class="node">
<title>0</title>
<path fill="none" stroke="#88d856" stroke-width="2" d="M211,-36C211,-36 181,-36 181,-36 175,-36 169,-30 169,-24 169,-24 169,-12 169,-12 169,-6 175,0 181,0 181,0 211,0 211,0 217,0 223,-6 223,-12 223,-12 223,-24 223,-24 223,-30 217,-36 211,-36"/>
<text text-anchor="middle" x="196" y="-15.5" font-family="sans" font-size="10.00">all</text>
</g>
<!-- 1 -->
<g id="node2" class="node">
<title>1</title>
<path fill="none" stroke="#56c1d8" stroke-width="2" d="M273,-108C273,-108 209,-108 209,-108 203,-108 197,-102 197,-96 197,-96 197,-84 197,-84 197,-78 203,-72 209,-72 209,-72 273,-72 273,-72 279,-72 285,-78 285,-84 285,-84 285,-96 285,-96 285,-102 279,-108 273,-108"/>
<text text-anchor="middle" x="241" y="-87.5" font-family="sans" font-size="10.00">circRNA_finder</text>
</g>
<!-- 1&#45;&gt;0 -->
<g id="edge2" class="edge">
<title>1&#45;&gt;0</title>
<path fill="none" stroke="grey" stroke-width="2" d="M229.88,-71.7C224.64,-63.56 218.3,-53.69 212.52,-44.7"/>
<polygon fill="grey" stroke="grey" stroke-width="2" points="215.35,-42.62 207,-36.1 209.46,-46.41 215.35,-42.62"/>
</g>
<!-- 2 -->
<g id="node3" class="node">
<title>2</title>
<path fill="none" stroke="#d8bc56" stroke-width="2" d="M264.5,-180C264.5,-180 217.5,-180 217.5,-180 211.5,-180 205.5,-174 205.5,-168 205.5,-168 205.5,-156 205.5,-156 205.5,-150 211.5,-144 217.5,-144 217.5,-144 264.5,-144 264.5,-144 270.5,-144 276.5,-150 276.5,-156 276.5,-156 276.5,-168 276.5,-168 276.5,-174 270.5,-180 264.5,-180"/>
<text text-anchor="middle" x="241" y="-159.5" font-family="sans" font-size="10.00">STAR_align</text>
</g>
<!-- 2&#45;&gt;1 -->
<g id="edge3" class="edge">
<title>2&#45;&gt;1</title>
<path fill="none" stroke="grey" stroke-width="2" d="M241,-143.7C241,-135.98 241,-126.71 241,-118.11"/>
<polygon fill="grey" stroke="grey" stroke-width="2" points="244.5,-118.1 241,-108.1 237.5,-118.1 244.5,-118.1"/>
</g>
<!-- 3 -->
<g id="node4" class="node">
<title>3</title>
<path fill="none" stroke="#d85656" stroke-width="2" d="M277.5,-252C277.5,-252 204.5,-252 204.5,-252 198.5,-252 192.5,-246 192.5,-240 192.5,-240 192.5,-228 192.5,-228 192.5,-222 198.5,-216 204.5,-216 204.5,-216 277.5,-216 277.5,-216 283.5,-216 289.5,-222 289.5,-228 289.5,-228 289.5,-240 289.5,-240 289.5,-246 283.5,-252 277.5,-252"/>
<text text-anchor="middle" x="241" y="-231.5" font-family="sans" font-size="10.00">build_star_index</text>
</g>
<!-- 3&#45;&gt;2 -->
<g id="edge4" class="edge">
<title>3&#45;&gt;2</title>
<path fill="none" stroke="grey" stroke-width="2" d="M241,-215.7C241,-207.98 241,-198.71 241,-190.11"/>
<polygon fill="grey" stroke="grey" stroke-width="2" points="244.5,-190.1 241,-180.1 237.5,-190.1 244.5,-190.1"/>
</g>
<!-- 4 -->
<g id="node5" class="node">
<title>4</title>
<path fill="none" stroke="#d88d56" stroke-width="2" d="M359,-324C359,-324 249,-324 249,-324 243,-324 237,-318 237,-312 237,-312 237,-300 237,-300 237,-294 243,-288 249,-288 249,-288 359,-288 359,-288 365,-288 371,-294 371,-300 371,-300 371,-312 371,-312 371,-318 365,-324 359,-324"/>
<text text-anchor="middle" x="304" y="-303.5" font-family="sans" font-size="10.00">getGENCODEannotation</text>
</g>
<!-- 4&#45;&gt;3 -->
<g id="edge6" class="edge">
<title>4&#45;&gt;3</title>
<path fill="none" stroke="grey" stroke-width="2" d="M288.43,-287.7C280.8,-279.22 271.48,-268.86 263.12,-259.58"/>
<polygon fill="grey" stroke="grey" stroke-width="2" points="265.69,-257.2 256.39,-252.1 260.48,-261.88 265.69,-257.2"/>
</g>
<!-- 6 -->
<g id="node7" class="node">
<title>6</title>
<path fill="none" stroke="#56d8c1" stroke-width="2" d="M167,-108C167,-108 137,-108 137,-108 131,-108 125,-102 125,-96 125,-96 125,-84 125,-84 125,-78 131,-72 137,-72 137,-72 167,-72 167,-72 173,-72 179,-78 179,-84 179,-84 179,-96 179,-96 179,-102 173,-108 167,-108"/>
<text text-anchor="middle" x="152" y="-87.5" font-family="sans" font-size="10.00">CIRI2</text>
</g>
<!-- 4&#45;&gt;6 -->
<g id="edge10" class="edge">
<title>4&#45;&gt;6</title>
<path fill="none" stroke="grey" stroke-width="2" d="M307.7,-287.6C313.49,-255.24 320.73,-185.35 286,-144 258.02,-110.69 233.99,-123.95 188.42,-107.73"/>
<polygon fill="grey" stroke="grey" stroke-width="2" points="189.6,-104.43 179.01,-104.07 187.06,-110.96 189.6,-104.43"/>
</g>
<!-- 5 -->
<g id="node6" class="node">
<title>5</title>
<path fill="none" stroke="#59d856" stroke-width="2" d="M193.5,-324C193.5,-324 96.5,-324 96.5,-324 90.5,-324 84.5,-318 84.5,-312 84.5,-312 84.5,-300 84.5,-300 84.5,-294 90.5,-288 96.5,-288 96.5,-288 193.5,-288 193.5,-288 199.5,-288 205.5,-294 205.5,-300 205.5,-300 205.5,-312 205.5,-312 205.5,-318 199.5,-324 193.5,-324"/>
<text text-anchor="middle" x="145" y="-303.5" font-family="sans" font-size="10.00">getGENCODEgenome</text>
</g>
<!-- 5&#45;&gt;3 -->
<g id="edge5" class="edge">
<title>5&#45;&gt;3</title>
<path fill="none" stroke="grey" stroke-width="2" d="M168.73,-287.7C180.94,-278.8 195.99,-267.82 209.18,-258.2"/>
<polygon fill="grey" stroke="grey" stroke-width="2" points="211.52,-260.82 217.54,-252.1 207.4,-255.17 211.52,-260.82"/>
</g>
<!-- 5&#45;&gt;6 -->
<g id="edge7" class="edge">
<title>5&#45;&gt;6</title>
<path fill="none" stroke="grey" stroke-width="2" d="M145.56,-287.85C146.77,-250.83 149.64,-163.18 151.1,-118.39"/>
<polygon fill="grey" stroke="grey" stroke-width="2" points="154.61,-118.34 151.44,-108.23 147.61,-118.11 154.61,-118.34"/>
</g>
<!-- 7 -->
<g id="node8" class="node">
<title>7</title>
<path fill="none" stroke="#56d88a" stroke-width="2" d="M124,-180C124,-180 80,-180 80,-180 74,-180 68,-174 68,-168 68,-168 68,-156 68,-156 68,-150 74,-144 80,-144 80,-144 124,-144 124,-144 130,-144 136,-150 136,-156 136,-156 136,-168 136,-168 136,-174 130,-180 124,-180"/>
<text text-anchor="middle" x="102" y="-159.5" font-family="sans" font-size="10.00">bwa_mem</text>
</g>
<!-- 5&#45;&gt;7 -->
<g id="edge12" class="edge">
<title>5&#45;&gt;7</title>
<path fill="none" stroke="grey" stroke-width="2" d="M139.81,-287.87C132.45,-263.56 118.9,-218.82 110.18,-190.01"/>
<polygon fill="grey" stroke="grey" stroke-width="2" points="113.45,-188.75 107.21,-180.19 106.75,-190.77 113.45,-188.75"/>
</g>
<!-- 8 -->
<g id="node9" class="node">
<title>8</title>
<path fill="none" stroke="#bed856" stroke-width="2" d="M86,-252C86,-252 12,-252 12,-252 6,-252 0,-246 0,-240 0,-240 0,-228 0,-228 0,-222 6,-216 12,-216 12,-216 86,-216 86,-216 92,-216 98,-222 98,-228 98,-228 98,-240 98,-240 98,-246 92,-252 86,-252"/>
<text text-anchor="middle" x="49" y="-231.5" font-family="sans" font-size="10.00">build_bwa_index</text>
</g>
<!-- 5&#45;&gt;8 -->
<g id="edge13" class="edge">
<title>5&#45;&gt;8</title>
<path fill="none" stroke="grey" stroke-width="2" d="M121.27,-287.7C109.06,-278.8 94.01,-267.82 80.82,-258.2"/>
<polygon fill="grey" stroke="grey" stroke-width="2" points="82.6,-255.17 72.46,-252.1 78.48,-260.82 82.6,-255.17"/>
</g>
<!-- 6&#45;&gt;0 -->
<g id="edge1" class="edge">
<title>6&#45;&gt;0</title>
<path fill="none" stroke="grey" stroke-width="2" d="M162.88,-71.7C167.99,-63.56 174.2,-53.69 179.84,-44.7"/>
<polygon fill="grey" stroke="grey" stroke-width="2" points="182.89,-46.43 185.25,-36.1 176.96,-42.71 182.89,-46.43"/>
</g>
<!-- 7&#45;&gt;6 -->
<g id="edge9" class="edge">
<title>7&#45;&gt;6</title>
<path fill="none" stroke="grey" stroke-width="2" d="M114.36,-143.7C120.23,-135.47 127.37,-125.48 133.84,-116.42"/>
<polygon fill="grey" stroke="grey" stroke-width="2" points="136.82,-118.28 139.78,-108.1 131.12,-114.21 136.82,-118.28"/>
</g>
<!-- 8&#45;&gt;6 -->
<g id="edge8" class="edge">
<title>8&#45;&gt;6</title>
<path fill="none" stroke="grey" stroke-width="2" d="M46.58,-215.73C44.81,-196.58 44.8,-165.56 59,-144 72.09,-124.13 95.35,-110.87 115.33,-102.59"/>
<polygon fill="grey" stroke="grey" stroke-width="2" points="116.76,-105.79 124.82,-98.92 114.23,-99.26 116.76,-105.79"/>
</g>
<!-- 8&#45;&gt;7 -->
<g id="edge11" class="edge">
<title>8&#45;&gt;7</title>
<path fill="none" stroke="grey" stroke-width="2" d="M62.1,-215.7C68.39,-207.39 76.05,-197.28 82.96,-188.14"/>
<polygon fill="grey" stroke="grey" stroke-width="2" points="85.8,-190.19 89.05,-180.1 80.22,-185.96 85.8,-190.19"/>
</g>
</g>
</svg>
