<?xml version="1.0" encoding="UTF-8" standalone="no"?>
<!DOCTYPE svg PUBLIC "-//W3C//DTD SVG 1.1//EN"
 "http://www.w3.org/Graphics/SVG/1.1/DTD/svg11.dtd">
<!-- Generated by graphviz version 2.43.0 (0)
 -->
<!-- Title: snakemake_dag Pages: 1 -->
<svg width="597pt" height="353pt"
 viewBox="0.00 0.00 597.00 353.00" xmlns="http://www.w3.org/2000/svg" xmlns:xlink="http://www.w3.org/1999/xlink">
<g id="graph0" class="graph" transform="scale(1 1) rotate(0) translate(4 349)">
<title>snakemake_dag</title>
<polygon fill="white" stroke="transparent" points="-4,4 -4,-349 593,-349 593,4 -4,4"/>
<!-- 0 -->
<g id="node1" class="node">
<title>0</title>
<path fill="none" stroke="#afd856" stroke-width="2" d="M276.5,-36C276.5,-36 246.5,-36 246.5,-36 240.5,-36 234.5,-30 234.5,-24 234.5,-24 234.5,-12 234.5,-12 234.5,-6 240.5,0 246.5,0 246.5,0 276.5,0 276.5,0 282.5,0 288.5,-6 288.5,-12 288.5,-12 288.5,-24 288.5,-24 288.5,-30 282.5,-36 276.5,-36"/>
<text text-anchor="middle" x="261.5" y="-15.5" font-family="sans" font-size="10.00">all</text>
</g>
<!-- 1 -->
<g id="node2" class="node">
<title>1</title>
<path fill="none" stroke="#56d8a9" stroke-width="2" d="M240.5,-108C240.5,-108 176.5,-108 176.5,-108 170.5,-108 164.5,-102 164.5,-96 164.5,-96 164.5,-84 164.5,-84 164.5,-78 170.5,-72 176.5,-72 176.5,-72 240.5,-72 240.5,-72 246.5,-72 252.5,-78 252.5,-84 252.5,-84 252.5,-96 252.5,-96 252.5,-102 246.5,-108 240.5,-108"/>
<text text-anchor="middle" x="208.5" y="-87.5" font-family="sans" font-size="10.00">circRNA_finder</text>
</g>
<!-- 1&#45;&gt;0 -->
<g id="edge1" class="edge">
<title>1&#45;&gt;0</title>
<path fill="none" stroke="grey" stroke-width="2" d="M221.6,-71.7C227.89,-63.39 235.55,-53.28 242.46,-44.14"/>
<polygon fill="grey" stroke="grey" stroke-width="2" points="245.3,-46.19 248.55,-36.1 239.72,-41.96 245.3,-46.19"/>
</g>
<!-- 2 -->
<g id="node3" class="node">
<title>2</title>
<path fill="none" stroke="#56d882" stroke-width="2" d="M240.5,-180C240.5,-180 156.5,-180 156.5,-180 150.5,-180 144.5,-174 144.5,-168 144.5,-168 144.5,-156 144.5,-156 144.5,-150 150.5,-144 156.5,-144 156.5,-144 240.5,-144 240.5,-144 246.5,-144 252.5,-150 252.5,-156 252.5,-156 252.5,-168 252.5,-168 252.5,-174 246.5,-180 240.5,-180"/>
<text text-anchor="middle" x="198.5" y="-165" font-family="sans" font-size="10.00">STAR_align</text>
<text text-anchor="middle" x="198.5" y="-154" font-family="sans" font-size="10.00">procdata: procdata</text>
</g>
<!-- 2&#45;&gt;1 -->
<g id="edge3" class="edge">
<title>2&#45;&gt;1</title>
<path fill="none" stroke="grey" stroke-width="2" d="M200.97,-143.7C202.07,-135.98 203.4,-126.71 204.63,-118.11"/>
<polygon fill="grey" stroke="grey" stroke-width="2" points="208.11,-118.5 206.06,-108.1 201.18,-117.51 208.11,-118.5"/>
</g>
<!-- 3 -->
<g id="node4" class="node">
<title>3</title>
<path fill="none" stroke="#80d856" stroke-width="2" d="M171.5,-257C171.5,-257 71.5,-257 71.5,-257 65.5,-257 59.5,-251 59.5,-245 59.5,-245 59.5,-228 59.5,-228 59.5,-222 65.5,-216 71.5,-216 71.5,-216 171.5,-216 171.5,-216 177.5,-216 183.5,-222 183.5,-228 183.5,-228 183.5,-245 183.5,-245 183.5,-251 177.5,-257 171.5,-257"/>
<text text-anchor="middle" x="121.5" y="-245" font-family="sans" font-size="10.00">sra_to_fastq</text>
<text text-anchor="middle" x="121.5" y="-234" font-family="sans" font-size="10.00">PROJECT_NAME: CCLE</text>
<text text-anchor="middle" x="121.5" y="-223" font-family="sans" font-size="10.00">sample: SRR8616020</text>
</g>
<!-- 3&#45;&gt;2 -->
<g id="edge4" class="edge">
<title>3&#45;&gt;2</title>
<path fill="none" stroke="grey" stroke-width="2" d="M142.54,-215.69C151.89,-206.89 162.97,-196.45 172.8,-187.19"/>
<polygon fill="grey" stroke="grey" stroke-width="2" points="175.48,-189.48 180.36,-180.08 170.68,-184.39 175.48,-189.48"/>
</g>
<!-- 4 -->
<g id="node5" class="node">
<title>4</title>
<path fill="none" stroke="#d8ac56" stroke-width="2" d="M123,-339.5C123,-339.5 12,-339.5 12,-339.5 6,-339.5 0,-333.5 0,-327.5 0,-327.5 0,-310.5 0,-310.5 0,-304.5 6,-298.5 12,-298.5 12,-298.5 123,-298.5 123,-298.5 129,-298.5 135,-304.5 135,-310.5 135,-310.5 135,-327.5 135,-327.5 135,-333.5 129,-339.5 123,-339.5"/>
<text text-anchor="middle" x="67.5" y="-327.5" font-family="sans" font-size="10.00">download_sra</text>
<text text-anchor="middle" x="67.5" y="-316.5" font-family="sans" font-size="10.00">any_path: rawdata/CCLE</text>
<text text-anchor="middle" x="67.5" y="-305.5" font-family="sans" font-size="10.00">sra_acc: 8616020</text>
</g>
<!-- 4&#45;&gt;3 -->
<g id="edge6" class="edge">
<title>4&#45;&gt;3</title>
<path fill="none" stroke="grey" stroke-width="2" d="M80.85,-298.1C87.39,-288.35 95.38,-276.44 102.54,-265.77"/>
<polygon fill="grey" stroke="grey" stroke-width="2" points="105.64,-267.42 108.31,-257.17 99.83,-263.52 105.64,-267.42"/>
</g>
<!-- 5 -->
<g id="node6" class="node">
<title>5</title>
<path fill="none" stroke="#d85656" stroke-width="2" d="M298,-254.5C298,-254.5 225,-254.5 225,-254.5 219,-254.5 213,-248.5 213,-242.5 213,-242.5 213,-230.5 213,-230.5 213,-224.5 219,-218.5 225,-218.5 225,-218.5 298,-218.5 298,-218.5 304,-218.5 310,-224.5 310,-230.5 310,-230.5 310,-242.5 310,-242.5 310,-248.5 304,-254.5 298,-254.5"/>
<text text-anchor="middle" x="261.5" y="-234" font-family="sans" font-size="10.00">build_star_index</text>
</g>
<!-- 5&#45;&gt;2 -->
<g id="edge5" class="edge">
<title>5&#45;&gt;2</title>
<path fill="none" stroke="grey" stroke-width="2" d="M246.57,-218.32C238.65,-209.2 228.77,-197.83 220.03,-187.77"/>
<polygon fill="grey" stroke="grey" stroke-width="2" points="222.52,-185.31 213.32,-180.06 217.24,-189.9 222.52,-185.31"/>
</g>
<!-- 9 -->
<g id="node10" class="node">
<title>9</title>
<path fill="none" stroke="#56d882" stroke-width="2" d="M366.5,-180C366.5,-180 282.5,-180 282.5,-180 276.5,-180 270.5,-174 270.5,-168 270.5,-168 270.5,-156 270.5,-156 270.5,-150 276.5,-144 282.5,-144 282.5,-144 366.5,-144 366.5,-144 372.5,-144 378.5,-150 378.5,-156 378.5,-156 378.5,-168 378.5,-168 378.5,-174 372.5,-180 366.5,-180"/>
<text text-anchor="middle" x="324.5" y="-165" font-family="sans" font-size="10.00">STAR_align</text>
<text text-anchor="middle" x="324.5" y="-154" font-family="sans" font-size="10.00">procdata: procdata</text>
</g>
<!-- 5&#45;&gt;9 -->
<g id="edge11" class="edge">
<title>5&#45;&gt;9</title>
<path fill="none" stroke="grey" stroke-width="2" d="M276.43,-218.32C284.35,-209.2 294.23,-197.83 302.97,-187.77"/>
<polygon fill="grey" stroke="grey" stroke-width="2" points="305.76,-189.9 309.68,-180.06 300.48,-185.31 305.76,-189.9"/>
</g>
<!-- 6 -->
<g id="node7" class="node">
<title>6</title>
<path fill="none" stroke="#5682d8" stroke-width="2" d="M423.5,-345C423.5,-345 313.5,-345 313.5,-345 307.5,-345 301.5,-339 301.5,-333 301.5,-333 301.5,-305 301.5,-305 301.5,-299 307.5,-293 313.5,-293 313.5,-293 423.5,-293 423.5,-293 429.5,-293 435.5,-299 435.5,-305 435.5,-305 435.5,-333 435.5,-333 435.5,-339 429.5,-345 423.5,-345"/>
<text text-anchor="middle" x="368.5" y="-333" font-family="sans" font-size="10.00">getGENCODEannotation</text>
<text text-anchor="middle" x="368.5" y="-322" font-family="sans" font-size="10.00">gencode_release: 44</text>
<text text-anchor="middle" x="368.5" y="-311" font-family="sans" font-size="10.00">ref_build: GRCh38</text>
<text text-anchor="middle" x="368.5" y="-300" font-family="sans" font-size="10.00">species: homo_sapiens</text>
</g>
<!-- 6&#45;&gt;5 -->
<g id="edge7" class="edge">
<title>6&#45;&gt;5</title>
<path fill="none" stroke="grey" stroke-width="2" d="M335.23,-292.97C321.51,-282.65 305.72,-270.77 292.27,-260.65"/>
<polygon fill="grey" stroke="grey" stroke-width="2" points="294.34,-257.83 284.24,-254.61 290.13,-263.42 294.34,-257.83"/>
</g>
<!-- 7 -->
<g id="node8" class="node">
<title>7</title>
<path fill="none" stroke="#56a9d8" stroke-width="2" d="M271.5,-345C271.5,-345 165.5,-345 165.5,-345 159.5,-345 153.5,-339 153.5,-333 153.5,-333 153.5,-305 153.5,-305 153.5,-299 159.5,-293 165.5,-293 165.5,-293 271.5,-293 271.5,-293 277.5,-293 283.5,-299 283.5,-305 283.5,-305 283.5,-333 283.5,-333 283.5,-339 277.5,-345 271.5,-345"/>
<text text-anchor="middle" x="218.5" y="-333" font-family="sans" font-size="10.00">getGENCODEgenome</text>
<text text-anchor="middle" x="218.5" y="-322" font-family="sans" font-size="10.00">gencode_release: 44</text>
<text text-anchor="middle" x="218.5" y="-311" font-family="sans" font-size="10.00">ref_build: GRCh38</text>
<text text-anchor="middle" x="218.5" y="-300" font-family="sans" font-size="10.00">species: homo_sapiens</text>
</g>
<!-- 7&#45;&gt;5 -->
<g id="edge8" class="edge">
<title>7&#45;&gt;5</title>
<path fill="none" stroke="grey" stroke-width="2" d="M231.87,-292.97C236.86,-283.62 242.54,-272.99 247.58,-263.56"/>
<polygon fill="grey" stroke="grey" stroke-width="2" points="250.74,-265.08 252.36,-254.61 244.56,-261.78 250.74,-265.08"/>
</g>
<!-- 8 -->
<g id="node9" class="node">
<title>8</title>
<path fill="none" stroke="#56d8a9" stroke-width="2" d="M351.5,-108C351.5,-108 287.5,-108 287.5,-108 281.5,-108 275.5,-102 275.5,-96 275.5,-96 275.5,-84 275.5,-84 275.5,-78 281.5,-72 287.5,-72 287.5,-72 351.5,-72 351.5,-72 357.5,-72 363.5,-78 363.5,-84 363.5,-84 363.5,-96 363.5,-96 363.5,-102 357.5,-108 351.5,-108"/>
<text text-anchor="middle" x="319.5" y="-87.5" font-family="sans" font-size="10.00">circRNA_finder</text>
</g>
<!-- 8&#45;&gt;0 -->
<g id="edge2" class="edge">
<title>8&#45;&gt;0</title>
<path fill="none" stroke="grey" stroke-width="2" d="M305.16,-71.7C298.21,-63.3 289.73,-53.07 282.1,-43.86"/>
<polygon fill="grey" stroke="grey" stroke-width="2" points="284.75,-41.57 275.67,-36.1 279.36,-46.04 284.75,-41.57"/>
</g>
<!-- 9&#45;&gt;8 -->
<g id="edge9" class="edge">
<title>9&#45;&gt;8</title>
<path fill="none" stroke="grey" stroke-width="2" d="M323.26,-143.7C322.71,-135.98 322.05,-126.71 321.44,-118.11"/>
<polygon fill="grey" stroke="grey" stroke-width="2" points="324.93,-117.83 320.72,-108.1 317.94,-118.33 324.93,-117.83"/>
</g>
<!-- 10 -->
<g id="node11" class="node">
<title>10</title>
<path fill="none" stroke="#80d856" stroke-width="2" d="M527.5,-257C527.5,-257 427.5,-257 427.5,-257 421.5,-257 415.5,-251 415.5,-245 415.5,-245 415.5,-228 415.5,-228 415.5,-222 421.5,-216 427.5,-216 427.5,-216 527.5,-216 527.5,-216 533.5,-216 539.5,-222 539.5,-228 539.5,-228 539.5,-245 539.5,-245 539.5,-251 533.5,-257 527.5,-257"/>
<text text-anchor="middle" x="477.5" y="-245" font-family="sans" font-size="10.00">sra_to_fastq</text>
<text text-anchor="middle" x="477.5" y="-234" font-family="sans" font-size="10.00">PROJECT_NAME: CCLE</text>
<text text-anchor="middle" x="477.5" y="-223" font-family="sans" font-size="10.00">sample: SRR8615545</text>
</g>
<!-- 10&#45;&gt;9 -->
<g id="edge10" class="edge">
<title>10&#45;&gt;9</title>
<path fill="none" stroke="grey" stroke-width="2" d="M436.1,-215.88C415.51,-206.13 390.6,-194.32 369.54,-184.34"/>
<polygon fill="grey" stroke="grey" stroke-width="2" points="371.01,-181.16 360.47,-180.05 368.01,-187.49 371.01,-181.16"/>
</g>
<!-- 11 -->
<g id="node12" class="node">
<title>11</title>
<path fill="none" stroke="#d8ac56" stroke-width="2" d="M577,-339.5C577,-339.5 466,-339.5 466,-339.5 460,-339.5 454,-333.5 454,-327.5 454,-327.5 454,-310.5 454,-310.5 454,-304.5 460,-298.5 466,-298.5 466,-298.5 577,-298.5 577,-298.5 583,-298.5 589,-304.5 589,-310.5 589,-310.5 589,-327.5 589,-327.5 589,-333.5 583,-339.5 577,-339.5"/>
<text text-anchor="middle" x="521.5" y="-327.5" font-family="sans" font-size="10.00">download_sra</text>
<text text-anchor="middle" x="521.5" y="-316.5" font-family="sans" font-size="10.00">any_path: rawdata/CCLE</text>
<text text-anchor="middle" x="521.5" y="-305.5" font-family="sans" font-size="10.00">sra_acc: 8615545</text>
</g>
<!-- 11&#45;&gt;10 -->
<g id="edge12" class="edge">
<title>11&#45;&gt;10</title>
<path fill="none" stroke="grey" stroke-width="2" d="M510.62,-298.1C505.35,-288.45 498.92,-276.68 493.13,-266.09"/>
<polygon fill="grey" stroke="grey" stroke-width="2" points="496.12,-264.27 488.25,-257.17 489.98,-267.62 496.12,-264.27"/>
</g>
</g>
</svg>
